<svg xmlns="http://www.w3.org/2000/svg" viewBox="0 0 240 240" role="img" aria-label="Profile avatar">
  <rect width="240" height="240" fill="#E0F2FE"/>
  <circle cx="120" cy="106" r="56" fill="#7C2D12"/>
  <circle cx="120" cy="115" r="46" fill="#F2C6A8"/>
  <path d="M65 109c6-43 28-68 61-68 30 0 54 24 58 65-33-8-67-22-98-3-8 5-15 7-21 6z" fill="#5C2E16"/>
  <circle cx="102" cy="118" r="5" fill="#0F172A"/>
  <circle cx="138" cy="118" r="5" fill="#0F172A"/>
  <path d="M103 145c13 10 25 10 37 0" fill="none" stroke="#9F1239" stroke-width="5" stroke-linecap="round"/>
  <path d="M45 240c12-46 44-73 75-73s63 27 75 73z" fill="#0E7490"/>
  <path d="M94 171c8 9 17 14 26 14s18-5 26-14v69H94z" fill="#F2C6A8"/>
</svg>
